# xmcd
# 
# Track frame offsets:
#     189
#     9985
#     22277
#     34555
#     50617
#     62190
#     76858
#     83876
#     92713
#     103426
#     119563
#     130292
#     145781
#     160853
#     173399
#     192775
#     205320
#     226341
# 
# Disc length: 3166
# 
# Revision: 1
# Processed by: cddbd v1.5.2PL0 Copyright (c) Steve Scherf et al.
# Submitted via: fre:ac v1.0.17
# 
DISCID=ef0c5c12
DTITLE=Orchestre National de Belgique - Tintin - Le temple du soleil
DYEAR=0
DGENRE=
TTITLE0=Rascar Capac
TTITLE1=Tintin and Milou
TTITLE2=Ah, je ris
TTITLE3=Les 7 boules de cristal
TTITLE4=La valse des professeurs
TTITLE5=Contrôle total
TTITLE6=Contaminées
TTITLE7=Tintin aide-nous
TTITLE8=Le soleil
TTITLE9=Mille millions de mille sabords
TTITLE10=No sé
TTITLE11=L'empire des riches
TTITLE12=Milou et moi
TTITLE13=Le pendule
TTITLE14=Feu de joie
TTITLE15=Adieu au whisky
TTITLE16=Le bucher
TTITLE17=Le soleil - Finale
EXTD=
EXTT0=
EXTT1=
EXTT2=
EXTT3=
EXTT4=
EXTT5=
EXTT6=
EXTT7=
EXTT8=
EXTT9=
EXTT10=
EXTT11=
EXTT12=
EXTT13=
EXTT14=
EXTT15=
EXTT16=
EXTT17=
PLAYORDER=
